<svg width="40" height="40" viewBox="0 0 40 40" fill="none" xmlns="http://www.w3.org/2000/svg">
<path fill-rule="evenodd" clip-rule="evenodd" d="M6.66667 8.33333C5.78261 8.33333 4.93476 8.68452 4.30964 9.30964C3.68452 9.93476 3.33333 10.7826 3.33333 11.6667V28.3333C3.33333 29.2174 3.68452 30.0652 4.30964 30.6904C4.93476 31.3155 5.78261 31.6667 6.66667 31.6667H33.3333C34.2174 31.6667 35.0652 31.3155 35.6904 30.6904C36.3155 30.0652 36.6667 29.2174 36.6667 28.3333V11.6667C36.6667 10.7826 36.3155 9.93476 35.6904 9.30964C35.0652 8.68452 34.2174 8.33333 33.3333 8.33333H6.66667ZM8.33333 11.6667C7.8913 11.6667 7.46738 11.8423 7.15482 12.1548C6.84226 12.4674 6.66667 12.8913 6.66667 13.3333V26.6667C6.66667 27.1087 6.84226 27.5326 7.15482 27.8452C7.46738 28.1577 7.8913 28.3333 8.33333 28.3333H31.6667C32.1087 28.3333 32.5326 28.1577 32.8452 27.8452C33.1577 27.5326 33.3333 27.1087 33.3333 26.6667V13.3333C33.3333 12.8913 33.1577 12.4674 32.8452 12.1548C32.5326 11.8423 32.1087 11.6667 31.6667 11.6667H8.33333Z" fill="black"/>
<path d="M3.33333 15H36.6667V18.3333H3.33333V15ZM10 23.3333H20V25H10V23.3333Z" fill="black"/>
</svg>
