<svg width="40" height="40" viewBox="0 0 40 40" fill="none" xmlns="http://www.w3.org/2000/svg">
<g clip-path="url(#clip0_41_99)">
<path d="M19.5122 0C14.2113 0 13.5496 0.025 11.4683 0.12C9.39024 0.22 7.97561 0.555 6.73171 1.05C5.44878 1.56 4.35935 2.245 3.27479 3.35666C2.19024 4.46834 1.52033 5.58334 1.02439 6.9C0.541463 8.175 0.213009 9.625 0.117073 11.755C0.0195122 13.8884 0 14.5666 0 20C0 25.4334 0.0243902 26.1116 0.117073 28.245C0.214634 30.3734 0.541463 31.825 1.02439 33.1C1.52195 34.4134 2.19024 35.5316 3.27479 36.6434C4.35935 37.7534 5.44716 38.4416 6.73171 38.95C7.97723 39.4434 9.39187 39.7816 11.4683 39.88C13.5496 39.98 14.2113 40 19.5122 40C24.813 40 25.4748 39.975 27.5561 39.88C29.6326 39.78 31.0488 39.4434 32.2927 38.95C33.574 38.44 34.665 37.7534 35.7496 36.6434C36.8326 35.5316 37.504 34.4184 38 33.1C38.4813 31.825 38.8113 30.3734 38.9073 28.245C39.0049 26.1116 39.0244 25.4334 39.0244 20C39.0244 14.5666 39 13.8884 38.9073 11.755C38.8098 9.62666 38.4813 8.17334 38 6.9C37.5024 5.585 36.8326 4.46834 35.7496 3.35666C34.665 2.245 33.5789 1.55834 32.2927 1.05C31.0488 0.555 29.6326 0.218334 27.5561 0.12C25.4748 0.02 24.813 0 19.5122 0ZM19.5122 3.6C24.7204 3.6 25.3415 3.62666 27.3984 3.71834C29.3009 3.81 30.3333 4.13334 31.0195 4.41C31.9333 4.77166 32.5805 5.205 33.2667 5.90334C33.9479 6.60334 34.3707 7.26834 34.7235 8.205C34.9902 8.90834 35.3089 9.96666 35.3951 11.9167C35.4878 14.0266 35.5089 14.66 35.5089 20C35.5089 25.34 35.4845 25.975 35.3887 28.0834C35.2894 30.0334 34.9723 31.0916 34.704 31.795C34.3399 32.7316 33.9252 33.395 33.2423 34.0984C32.561 34.7966 31.9024 35.23 30.9984 35.5916C30.3155 35.865 29.2667 36.1916 27.3643 36.28C25.2927 36.375 24.6829 36.3966 19.4634 36.3966C14.2423 36.3966 13.6326 36.3716 11.5626 36.2734C9.65854 36.1716 8.60976 35.8466 7.92683 35.5716C7.00162 35.1984 6.36585 34.7734 5.68455 34.0734C5 33.375 4.5626 32.7 4.22113 31.7734C3.95284 31.0734 3.6374 29.9984 3.53821 28.0484C3.46504 25.9484 3.43902 25.3 3.43902 19.975C3.43902 14.6484 3.46504 13.9984 3.53821 11.8733C3.6374 9.92334 3.95284 8.85 4.22113 8.15C4.5626 7.2 5 6.55 5.68455 5.84834C6.36585 5.15 7.00162 4.7 7.92683 4.35166C8.60976 4.075 9.63577 3.75 11.5382 3.65C13.6113 3.575 14.2211 3.55 19.439 3.55L19.5122 3.6ZM19.5122 9.73C13.9756 9.73 9.49268 14.33 9.49268 20C9.49268 25.675 13.9805 30.27 19.5122 30.27C25.0488 30.27 29.5317 25.67 29.5317 20C29.5317 14.325 25.0439 9.73 19.5122 9.73ZM19.5122 26.6666C15.9187 26.6666 13.0082 23.6834 13.0082 20C13.0082 16.3166 15.9187 13.3334 19.5122 13.3334C23.1057 13.3334 26.0162 16.3166 26.0162 20C26.0162 23.6834 23.1057 26.6666 19.5122 26.6666ZM32.2699 9.325C32.2699 10.65 31.2195 11.725 29.9284 11.725C28.6357 11.725 27.587 10.6483 27.587 9.325C27.587 8.00166 28.6374 6.92666 29.9284 6.92666C31.2179 6.925 32.2699 8.00166 32.2699 9.325Z" fill="black"/>
</g>
<defs>
<clipPath id="clip0_41_99">
<rect width="39.0244" height="40" fill="white"/>
</clipPath>
</defs>
</svg>
