<svg width="40" height="40" viewBox="0 0 40 40" fill="none" xmlns="http://www.w3.org/2000/svg">
<path d="M20 3.33333C16.4638 3.33333 13.0724 4.73809 10.5719 7.23858C8.07143 9.73906 6.66667 13.1304 6.66667 16.6667C6.66667 25.6667 18.4167 35.8333 18.9167 36.2667C19.2186 36.5249 19.6027 36.6668 20 36.6668C20.3973 36.6668 20.7814 36.5249 21.0833 36.2667C21.6667 35.8333 33.3333 25.6667 33.3333 16.6667C33.3333 13.1304 31.9286 9.73906 29.4281 7.23858C26.9276 4.73809 23.5362 3.33333 20 3.33333ZM20 32.75C16.45 29.4167 10 22.2333 10 16.6667C10 14.0145 11.0536 11.471 12.9289 9.5956C14.8043 7.72024 17.3478 6.66667 20 6.66667C22.6522 6.66667 25.1957 7.72024 27.0711 9.5956C28.9464 11.471 30 14.0145 30 16.6667C30 22.2333 23.55 29.4333 20 32.75ZM20 10C18.6815 10 17.3925 10.391 16.2962 11.1235C15.1999 11.8561 14.3454 12.8973 13.8408 14.1154C13.3362 15.3336 13.2042 16.6741 13.4614 17.9673C13.7187 19.2605 14.3536 20.4484 15.286 21.3807C16.2183 22.3131 17.4062 22.948 18.6994 23.2052C19.9926 23.4625 21.3331 23.3304 22.5512 22.8259C23.7694 22.3213 24.8106 21.4668 25.5431 20.3705C26.2757 19.2741 26.6667 17.9852 26.6667 16.6667C26.6667 14.8986 25.9643 13.2029 24.714 11.9526C23.4638 10.7024 21.7681 10 20 10ZM20 20C19.3407 20 18.6963 19.8045 18.1481 19.4382C17.5999 19.072 17.1727 18.5514 16.9204 17.9423C16.6681 17.3332 16.6021 16.663 16.7307 16.0164C16.8593 15.3698 17.1768 14.7758 17.643 14.3096C18.1092 13.8435 18.7031 13.526 19.3497 13.3974C19.9963 13.2688 20.6665 13.3348 21.2756 13.5871C21.8847 13.8394 22.4053 14.2666 22.7716 14.8148C23.1378 15.3629 23.3333 16.0074 23.3333 16.6667C23.3333 17.5507 22.9821 18.3986 22.357 19.0237C21.7319 19.6488 20.8841 20 20 20Z" fill="black"/>
</svg>
