<svg width="40" height="40" viewBox="0 0 40 40" fill="none" xmlns="http://www.w3.org/2000/svg">
<path d="M36.25 16.25C36.2496 16.0346 36.1941 15.8229 36.0888 15.635L30.4437 5.635C30.3348 5.4422 30.1766 5.2818 29.9853 5.17023C29.794 5.05866 29.5765 4.99991 29.355 5H10.645C10.4235 4.99991 10.206 5.05866 10.0147 5.17023C9.82343 5.2818 9.66521 5.4422 9.55625 5.635L3.91125 15.635C3.80586 15.8229 3.75035 16.0346 3.75 16.25C3.75276 17.1238 3.98519 17.9814 4.42397 18.737C4.86276 19.4926 5.49248 20.1196 6.25 20.555V32.5C6.25 33.163 6.51339 33.7989 6.98223 34.2678C7.45107 34.7366 8.08696 35 8.75 35H16.1C16.763 35 17.3989 34.7366 17.8678 34.2678C18.3366 33.7989 18.6 33.163 18.6 32.5V29.1162C18.5884 28.7515 18.7083 28.3947 18.9377 28.1109C19.1672 27.8271 19.4909 27.6351 19.85 27.57C20.0453 27.5493 20.2429 27.5699 20.4297 27.6305C20.6166 27.691 20.7887 27.7901 20.9348 27.9214C21.0809 28.0527 21.1978 28.2132 21.278 28.3925C21.3581 28.5719 21.3997 28.7661 21.4 28.9625V32.5C21.4 33.163 21.6634 33.7989 22.1322 34.2678C22.6011 34.7366 23.237 35 23.9 35H31.25C31.913 35 32.5489 34.7366 33.0178 34.2678C33.4866 33.7989 33.75 33.163 33.75 32.5V20.555C34.5075 20.1196 35.1372 19.4926 35.576 18.737C36.0148 17.9814 36.2472 17.1238 36.25 16.25ZM33.7325 16.5475C33.6572 17.1807 33.3428 17.7611 32.8536 18.1701C32.3645 18.5791 31.7375 18.7858 31.101 18.7478C30.4645 18.7098 29.8666 18.43 29.4296 17.9657C28.9925 17.5014 28.7494 16.8876 28.75 16.25C28.7428 16.1917 28.7311 16.134 28.715 16.0775C28.7152 16.0214 28.711 15.9654 28.7025 15.91L26.3263 7.5H28.625L33.7325 16.5475ZM16.2713 7.5H18.75V16.25C18.7239 16.8839 18.4578 17.4842 18.0057 17.9292C17.5535 18.3742 16.949 18.6306 16.3147 18.6465C15.6805 18.6624 15.064 18.4366 14.59 18.0148C14.1161 17.593 13.8203 17.0068 13.7625 16.375L16.2713 7.5ZM21.25 7.5H23.7287L26.2375 16.375C26.1797 17.0068 25.8839 17.593 25.41 18.0148C24.9361 18.4366 24.3195 18.6624 23.6853 18.6465C23.051 18.6306 22.4465 18.3742 21.9943 17.9292C21.5422 17.4842 21.2761 16.8839 21.25 16.25V7.5ZM11.375 7.5H13.6738L11.2987 15.91C11.2902 15.9654 11.2861 16.0214 11.2863 16.0775C11.2697 16.134 11.2576 16.1917 11.25 16.25C11.2506 16.8876 11.0075 17.5014 10.5704 17.9657C10.1334 18.43 9.5355 18.7098 8.89901 18.7478C8.26251 18.7858 7.63555 18.5791 7.14638 18.1701C6.65721 17.7611 6.34281 17.1807 6.2675 16.5475L11.375 7.5ZM31.25 32.5H23.9V28.9625C23.8994 28.417 23.7843 27.8777 23.5623 27.3794C23.3402 26.8811 23.0161 26.435 22.6108 26.0698C22.2056 25.7046 21.7282 25.4285 21.2096 25.2593C20.691 25.0901 20.1426 25.0315 19.6 25.0875C18.6239 25.2148 17.7285 25.6957 17.0834 26.4392C16.4383 27.1827 16.0884 28.137 16.1 29.1213V32.5H8.75V21.25C9.45977 21.2504 10.1614 21.0993 10.8081 20.8067C11.4548 20.5142 12.0316 20.087 12.5 19.5537C12.9682 20.0891 13.546 20.5176 14.1942 20.8102C14.8424 21.1028 15.5459 21.2527 16.2571 21.2498C16.9683 21.2468 17.6706 21.091 18.3163 20.793C18.9621 20.495 19.5363 20.0617 20 19.5225C20.4637 20.0617 21.0379 20.495 21.6837 20.793C22.3294 21.091 23.0317 21.2468 23.7429 21.2498C24.4541 21.2527 25.1576 21.1028 25.8058 20.8102C26.454 20.5176 27.0318 20.0891 27.5 19.5537C27.9684 20.087 28.5452 20.5142 29.1919 20.8067C29.8386 21.0993 30.5402 21.2504 31.25 21.25V32.5Z" fill="black"/>
</svg>
