<svg width="254" height="38" viewBox="0 0 254 38" fill="none" xmlns="http://www.w3.org/2000/svg">
<path d="M0.679993 25.72C1.15999 25.9333 1.87999 26.2533 2.83999 26.68C3.82666 27.08 4.99999 27.48 6.35999 27.88C7.74666 28.28 9.29333 28.6267 11 28.92C12.7067 29.2133 14.5333 29.36 16.48 29.36C16.7733 29.36 17.1467 29.3467 17.6 29.32C18.0533 29.2667 18.5067 29.1733 18.96 29.04C19.4133 28.88 19.8 28.6533 20.12 28.36C20.44 28.0667 20.6 27.6667 20.6 27.16C20.6 26.4933 20.1733 26 19.32 25.68C18.4667 25.3333 17.3867 24.9867 16.08 24.64C15.12 24.3733 14.0667 24.08 12.92 23.76C11.8 23.4133 10.68 23 9.55999 22.52C8.43999 22.0133 7.35999 21.4133 6.31999 20.72C5.27999 20.0267 4.35999 19.1867 3.55999 18.2C2.78666 17.2133 2.15999 16.0533 1.67999 14.72C1.19999 13.3867 0.959993 11.8533 0.959993 10.12C0.959993 8.78667 1.13333 7.62667 1.47999 6.64C1.82666 5.65334 2.29333 4.82667 2.87999 4.16001C3.49333 3.46667 4.18666 2.90667 4.95999 2.48001C5.75999 2.05334 6.59999 1.72 7.47999 1.48C8.35999 1.24001 9.26666 1.08001 10.2 1.00001C11.1333 0.920005 12.0267 0.880005 12.88 0.880005C13.28 0.880005 13.8267 0.906672 14.52 0.960006C15.24 0.986673 15.9733 1.02667 16.72 1.08C17.4933 1.13334 18.2133 1.20001 18.88 1.28C19.5733 1.33334 20.0933 1.38667 20.44 1.44V12.96C20.04 12.56 19.5467 12.1333 18.96 11.68C18.3733 11.2267 17.6933 10.8133 16.92 10.44C16.1467 10.04 15.2667 9.72001 14.28 9.48001C13.32 9.24001 12.2267 9.12001 11 9.12001C9.98666 9.12001 8.98666 9.28001 7.99999 9.6C7.03999 9.92 6.17333 10.3467 5.39999 10.88C4.65333 11.3867 4.05333 11.96 3.59999 12.6C3.14666 13.24 2.91999 13.8667 2.91999 14.48C2.91999 14.96 2.99999 15.36 3.15999 15.68C3.34666 15.9733 3.57333 16.2133 3.83999 16.4C4.13333 16.56 4.45333 16.68 4.79999 16.76C5.14666 16.8133 5.49333 16.84 5.83999 16.84C6.77333 16.84 7.85333 16.7733 9.07999 16.64C10.3067 16.48 11.56 16.4 12.84 16.4C13.9867 16.4 15.1067 16.52 16.2 16.76C17.2933 16.9733 18.2533 17.4133 19.08 18.08C19.9333 18.7467 20.6133 19.6933 21.12 20.92C21.6533 22.1467 21.92 23.76 21.92 25.76C21.92 27.9467 21.5467 29.7867 20.8 31.28C20.0533 32.7733 19.0933 33.9867 17.92 34.92C16.7733 35.8267 15.5067 36.48 14.12 36.88C12.76 37.28 11.4533 37.48 10.2 37.48C9.61333 37.48 8.90666 37.4667 8.07999 37.44C7.27999 37.44 6.43999 37.4133 5.55999 37.36C4.67999 37.3333 3.81333 37.28 2.95999 37.2C2.10666 37.1467 1.34666 37.08 0.679993 37V25.72Z" fill="black"/>
<path d="M36.6172 37.48C34.4838 37.48 32.6172 36.96 31.0172 35.92C29.4172 34.88 28.0838 33.5067 27.0172 31.8C25.9772 30.0933 25.1905 28.1467 24.6572 25.96C24.1238 23.7733 23.8572 21.5333 23.8572 19.24C23.8572 16.9467 24.1238 14.7067 24.6572 12.52C25.1905 10.3067 25.9772 8.34667 27.0172 6.64C28.0838 4.93334 29.4172 3.56001 31.0172 2.52001C32.6172 1.48001 34.4838 0.960006 36.6172 0.960006C38.7505 0.960006 40.6172 1.48001 42.2172 2.52001C43.8172 3.56001 45.1505 4.93334 46.2172 6.64C47.2838 8.34667 48.0838 10.3067 48.6172 12.52C49.1505 14.7067 49.4172 16.9467 49.4172 19.24C49.4172 21.5333 49.1505 23.7733 48.6172 25.96C48.0838 28.1467 47.2838 30.0933 46.2172 31.8C45.1505 33.5067 43.8172 34.88 42.2172 35.92C40.6172 36.96 38.7505 37.48 36.6172 37.48ZM44.0972 9.28001C43.2172 9.28001 42.1638 9.54667 40.9372 10.08C39.7372 10.5867 38.4705 11.2933 37.1372 12.2C35.8305 13.08 34.5238 14.0933 33.2172 15.24C31.9372 16.3867 30.7772 17.5867 29.7372 18.84C28.7238 20.0667 27.8972 21.32 27.2572 22.6C26.6438 23.8533 26.3372 25.0267 26.3372 26.12C26.3372 27.1333 26.5905 27.8933 27.0972 28.4C27.6305 28.88 28.3105 29.12 29.1372 29.12C30.0172 29.12 31.0705 28.8667 32.2972 28.36C33.5238 27.8267 34.7905 27.12 36.0972 26.24C37.4038 25.36 38.7105 24.3467 40.0172 23.2C41.3238 22.0267 42.4838 20.8267 43.4972 19.6C44.5105 18.3467 45.3372 17.0933 45.9772 15.84C46.6172 14.5867 46.9372 13.4133 46.9372 12.32C46.9372 11.3067 46.6705 10.5467 46.1372 10.04C45.6038 9.53334 44.9238 9.28001 44.0972 9.28001Z" fill="black"/>
<path d="M49.8925 37C50.5858 33.4267 51.1725 30.0133 51.6525 26.76C52.1592 23.5067 52.4125 20.1867 52.4125 16.8C52.4125 14.2133 52.2258 11.6533 51.8525 9.12001C51.4792 6.58667 50.8525 4.02667 49.9725 1.44H58.9325C59.3325 2.32 59.6125 3.21334 59.7725 4.12001C59.9592 5.00001 60.0525 5.90667 60.0525 6.84001C60.0525 8.06667 59.9192 9.30667 59.6525 10.56C59.3858 11.7867 59.0392 13 58.6125 14.2C58.1858 15.4 57.7192 16.56 57.2125 17.68C56.7325 18.8 56.2525 19.8667 55.7725 20.88C55.1592 22.16 54.6392 23.32 54.2125 24.36C53.7858 25.3733 53.5725 26.2533 53.5725 27C53.5725 27.5067 53.6792 27.92 53.8925 28.24C54.1325 28.5333 54.4258 28.7733 54.7725 28.96C55.1192 29.12 55.4792 29.2267 55.8525 29.28C56.2525 29.3333 56.6258 29.36 56.9725 29.36C57.9325 29.36 58.9992 29.24 60.1725 29C61.3458 28.7333 62.4658 28.4267 63.5325 28.08C64.6258 27.7067 65.5992 27.3333 66.4525 26.96C67.3325 26.5867 67.9592 26.28 68.3325 26.04V37H49.8925Z" fill="black"/>
<path d="M68.6637 37C69.3304 35.0267 70.0237 33.0133 70.7437 30.96C71.4904 28.9067 72.1571 26.84 72.7437 24.76C73.3571 22.6533 73.8504 20.5333 74.2237 18.4C74.6237 16.24 74.8237 14.0933 74.8237 11.96C74.8237 9.74667 74.6637 7.70667 74.3437 5.84001C74.0237 3.97334 73.5571 2.50667 72.9437 1.44H90.1037C90.1037 4.96001 90.1971 8.32001 90.3837 11.52C90.5971 14.72 90.9437 17.7867 91.4237 20.72C91.9037 23.6533 92.5438 26.4667 93.3438 29.16C94.1438 31.8533 95.1437 34.4667 96.3437 37H82.7037C81.9037 35.4267 81.3304 33.96 80.9837 32.6C80.6371 31.24 80.4637 29.9333 80.4637 28.68C80.4637 27.24 80.6637 25.8933 81.0637 24.64C81.4637 23.3867 81.9571 22.2133 82.5437 21.12C83.1571 20.0267 83.8237 19.0267 84.5437 18.12C85.2904 17.1867 85.9837 16.32 86.6237 15.52C87.3971 14.6133 88.0371 13.8 88.5437 13.08C89.0771 12.36 89.3437 11.6533 89.3437 10.96C89.3437 10.3467 89.1837 9.92001 88.8637 9.68001C88.5437 9.44001 88.1571 9.32001 87.7037 9.32001C87.0904 9.32001 86.3571 9.45334 85.5037 9.72001C84.6504 9.98667 83.7571 10.4 82.8237 10.96C81.9171 11.52 81.0104 12.2267 80.1037 13.08C79.1971 13.9333 78.3837 14.9333 77.6637 16.08C76.9437 17.2267 76.3571 18.5333 75.9037 20C75.4771 21.4667 75.2637 23.0933 75.2637 24.88C75.2637 26.6933 75.5037 28.6133 75.9837 30.64C76.4904 32.64 77.3171 34.76 78.4637 37H68.6637Z" fill="black"/>
<path d="M97.3797 37C98.233 34.2 98.8997 31.28 99.3797 28.24C99.8597 25.1733 100.1 21.9467 100.1 18.56C100.1 15.52 99.8863 12.56 99.4597 9.68001C99.0597 6.77334 98.4197 4.02667 97.5397 1.44C98.233 1.30667 99.2463 1.18667 100.58 1.08C101.94 0.946671 103.54 0.880005 105.38 0.880005C107.246 0.880005 109.086 1.01334 110.9 1.28C112.713 1.52 114.326 2 115.74 2.72001C117.18 3.41334 118.34 4.37334 119.22 5.60001C120.1 6.82667 120.54 8.41334 120.54 10.36C120.54 11.6933 120.313 12.9733 119.86 14.2C119.406 15.4 118.713 16.4667 117.78 17.4C116.873 18.3333 115.726 19.12 114.34 19.76C112.98 20.3733 111.393 20.7733 109.58 20.96C109.58 21.7067 109.846 22.3867 110.38 23C110.913 23.5867 111.58 24.0933 112.38 24.52C113.206 24.9467 114.1 25.2667 115.06 25.48C116.02 25.6933 116.913 25.8 117.74 25.8C118.246 25.8 118.726 25.7867 119.18 25.76C119.66 25.7333 120.1 25.6933 120.5 25.64V37C119.993 37.1867 119.513 37.3067 119.06 37.36C118.606 37.44 118.166 37.48 117.74 37.48C116.7 37.48 115.806 37.2667 115.06 36.84C114.313 36.4133 113.646 35.8667 113.06 35.2C112.5 34.5067 111.993 33.72 111.54 32.84C111.113 31.9333 110.7 31.0267 110.3 30.12C109.873 29.1867 109.433 28.2667 108.98 27.36C108.553 26.4533 108.06 25.6533 107.5 24.96C106.966 24.2667 106.34 23.7067 105.62 23.28C104.926 22.8533 104.113 22.64 103.18 22.64C103.18 23.92 103.22 25.1867 103.3 26.44C103.38 27.6933 103.553 28.9333 103.82 30.16C104.086 31.36 104.446 32.5333 104.9 33.68C105.38 34.8267 106.02 35.9333 106.82 37H97.3797ZM115.26 9.32001C114.753 9.32001 114.14 9.48001 113.42 9.80001C112.726 10.0933 111.993 10.4933 111.22 11C110.473 11.48 109.713 12.0533 108.94 12.72C108.193 13.3867 107.526 14.08 106.94 14.8C106.353 15.4933 105.873 16.2 105.5 16.92C105.126 17.64 104.94 18.32 104.94 18.96C104.94 19.4933 105.073 19.92 105.34 20.24C105.606 20.56 105.993 20.72 106.5 20.72C107.006 20.72 107.606 20.5733 108.3 20.28C108.993 19.96 109.726 19.5467 110.5 19.04C111.273 18.5333 112.033 17.9467 112.78 17.28C113.526 16.6133 114.193 15.9333 114.78 15.24C115.366 14.52 115.846 13.8 116.22 13.08C116.593 12.3333 116.78 11.6533 116.78 11.04C116.78 9.89334 116.273 9.32001 115.26 9.32001Z" fill="black"/>
<path d="M133.499 25.72C133.979 25.9333 134.699 26.2533 135.659 26.68C136.645 27.08 137.819 27.48 139.179 27.88C140.565 28.28 142.112 28.6267 143.819 28.92C145.525 29.2133 147.352 29.36 149.299 29.36C149.592 29.36 149.965 29.3467 150.419 29.32C150.872 29.2667 151.325 29.1733 151.779 29.04C152.232 28.88 152.619 28.6533 152.939 28.36C153.259 28.0667 153.419 27.6667 153.419 27.16C153.419 26.4933 152.992 26 152.139 25.68C151.285 25.3333 150.205 24.9867 148.899 24.64C147.939 24.3733 146.885 24.08 145.739 23.76C144.619 23.4133 143.499 23 142.379 22.52C141.259 22.0133 140.179 21.4133 139.139 20.72C138.099 20.0267 137.179 19.1867 136.379 18.2C135.605 17.2133 134.979 16.0533 134.499 14.72C134.019 13.3867 133.779 11.8533 133.779 10.12C133.779 8.78667 133.952 7.62667 134.299 6.64C134.645 5.65334 135.112 4.82667 135.699 4.16001C136.312 3.46667 137.005 2.90667 137.779 2.48001C138.579 2.05334 139.419 1.72 140.299 1.48C141.179 1.24001 142.085 1.08001 143.019 1.00001C143.952 0.920005 144.845 0.880005 145.699 0.880005C146.099 0.880005 146.645 0.906672 147.339 0.960006C148.059 0.986673 148.792 1.02667 149.539 1.08C150.312 1.13334 151.032 1.20001 151.699 1.28C152.392 1.33334 152.912 1.38667 153.259 1.44V12.96C152.859 12.56 152.365 12.1333 151.779 11.68C151.192 11.2267 150.512 10.8133 149.739 10.44C148.965 10.04 148.085 9.72001 147.099 9.48001C146.139 9.24001 145.045 9.12001 143.819 9.12001C142.805 9.12001 141.805 9.28001 140.819 9.6C139.859 9.92 138.992 10.3467 138.219 10.88C137.472 11.3867 136.872 11.96 136.419 12.6C135.965 13.24 135.739 13.8667 135.739 14.48C135.739 14.96 135.819 15.36 135.979 15.68C136.165 15.9733 136.392 16.2133 136.659 16.4C136.952 16.56 137.272 16.68 137.619 16.76C137.965 16.8133 138.312 16.84 138.659 16.84C139.592 16.84 140.672 16.7733 141.899 16.64C143.125 16.48 144.379 16.4 145.659 16.4C146.805 16.4 147.925 16.52 149.019 16.76C150.112 16.9733 151.072 17.4133 151.899 18.08C152.752 18.7467 153.432 19.6933 153.939 20.92C154.472 22.1467 154.739 23.76 154.739 25.76C154.739 27.9467 154.365 29.7867 153.619 31.28C152.872 32.7733 151.912 33.9867 150.739 34.92C149.592 35.8267 148.325 36.48 146.939 36.88C145.579 37.28 144.272 37.48 143.019 37.48C142.432 37.48 141.725 37.4667 140.899 37.44C140.099 37.44 139.259 37.4133 138.379 37.36C137.499 37.3333 136.632 37.28 135.779 37.2C134.925 37.1467 134.165 37.08 133.499 37V25.72Z" fill="black"/>
<path d="M162.476 37C161.943 35.6933 161.569 34.48 161.356 33.36C161.143 32.24 161.036 31.12 161.036 30C161.036 28.8267 161.143 27.6933 161.356 26.6C161.596 25.48 161.876 24.4133 162.196 23.4C162.543 22.36 162.916 21.3867 163.316 20.48C163.743 19.5467 164.156 18.6667 164.556 17.84C165.089 16.7467 165.529 15.7467 165.876 14.84C166.249 13.9333 166.436 13.0933 166.436 12.32C166.436 11.44 166.183 10.76 165.676 10.28C165.169 9.77334 164.556 9.52001 163.836 9.52001C163.223 9.52001 162.583 9.64001 161.916 9.88001C161.249 10.0933 160.583 10.3733 159.916 10.72C159.249 11.0667 158.596 11.44 157.956 11.84C157.343 12.2133 156.769 12.5467 156.236 12.84V1.44H178.996V12.88C178.756 12.6667 178.369 12.36 177.836 11.96C177.329 11.56 176.743 11.16 176.076 10.76C175.409 10.36 174.703 10.0133 173.956 9.72001C173.209 9.40001 172.489 9.24001 171.796 9.24001C170.969 9.24001 170.303 9.48001 169.796 9.96C169.316 10.44 168.943 11.0533 168.676 11.8C168.436 12.5467 168.276 13.36 168.196 14.24C168.143 15.12 168.116 15.9467 168.116 16.72C168.116 18.6133 168.276 20.4533 168.596 22.24C168.916 24.0267 169.356 25.76 169.916 27.44C170.476 29.12 171.116 30.76 171.836 32.36C172.556 33.9333 173.316 35.48 174.116 37H162.476Z" fill="black"/>
<path d="M193.2 37.48C191.067 37.48 189.2 36.96 187.6 35.92C186 34.88 184.667 33.5067 183.6 31.8C182.56 30.0933 181.773 28.1467 181.24 25.96C180.707 23.7733 180.44 21.5333 180.44 19.24C180.44 16.9467 180.707 14.7067 181.24 12.52C181.773 10.3067 182.56 8.34667 183.6 6.64C184.667 4.93334 186 3.56001 187.6 2.52001C189.2 1.48001 191.067 0.960006 193.2 0.960006C195.333 0.960006 197.2 1.48001 198.8 2.52001C200.4 3.56001 201.733 4.93334 202.8 6.64C203.867 8.34667 204.667 10.3067 205.2 12.52C205.733 14.7067 206 16.9467 206 19.24C206 21.5333 205.733 23.7733 205.2 25.96C204.667 28.1467 203.867 30.0933 202.8 31.8C201.733 33.5067 200.4 34.88 198.8 35.92C197.2 36.96 195.333 37.48 193.2 37.48ZM200.68 9.28001C199.8 9.28001 198.747 9.54667 197.52 10.08C196.32 10.5867 195.053 11.2933 193.72 12.2C192.413 13.08 191.107 14.0933 189.8 15.24C188.52 16.3867 187.36 17.5867 186.32 18.84C185.307 20.0667 184.48 21.32 183.84 22.6C183.227 23.8533 182.92 25.0267 182.92 26.12C182.92 27.1333 183.173 27.8933 183.68 28.4C184.213 28.88 184.893 29.12 185.72 29.12C186.6 29.12 187.653 28.8667 188.88 28.36C190.107 27.8267 191.373 27.12 192.68 26.24C193.987 25.36 195.293 24.3467 196.6 23.2C197.907 22.0267 199.067 20.8267 200.08 19.6C201.093 18.3467 201.92 17.0933 202.56 15.84C203.2 14.5867 203.52 13.4133 203.52 12.32C203.52 11.3067 203.253 10.5467 202.72 10.04C202.187 9.53334 201.507 9.28001 200.68 9.28001Z" fill="black"/>
<path d="M206.395 37C207.249 34.2 207.915 31.28 208.395 28.24C208.875 25.1733 209.115 21.9467 209.115 18.56C209.115 15.52 208.902 12.56 208.475 9.68001C208.075 6.77334 207.435 4.02667 206.555 1.44C207.249 1.30667 208.262 1.18667 209.595 1.08C210.955 0.946671 212.555 0.880005 214.395 0.880005C216.262 0.880005 218.102 1.01334 219.915 1.28C221.729 1.52 223.342 2 224.755 2.72001C226.195 3.41334 227.355 4.37334 228.235 5.60001C229.115 6.82667 229.555 8.41334 229.555 10.36C229.555 11.6933 229.329 12.9733 228.875 14.2C228.422 15.4 227.729 16.4667 226.795 17.4C225.889 18.3333 224.742 19.12 223.355 19.76C221.995 20.3733 220.409 20.7733 218.595 20.96C218.595 21.7067 218.862 22.3867 219.395 23C219.929 23.5867 220.595 24.0933 221.395 24.52C222.222 24.9467 223.115 25.2667 224.075 25.48C225.035 25.6933 225.929 25.8 226.755 25.8C227.262 25.8 227.742 25.7867 228.195 25.76C228.675 25.7333 229.115 25.6933 229.515 25.64V37C229.009 37.1867 228.529 37.3067 228.075 37.36C227.622 37.44 227.182 37.48 226.755 37.48C225.715 37.48 224.822 37.2667 224.075 36.84C223.329 36.4133 222.662 35.8667 222.075 35.2C221.515 34.5067 221.009 33.72 220.555 32.84C220.129 31.9333 219.715 31.0267 219.315 30.12C218.889 29.1867 218.449 28.2667 217.995 27.36C217.569 26.4533 217.075 25.6533 216.515 24.96C215.982 24.2667 215.355 23.7067 214.635 23.28C213.942 22.8533 213.129 22.64 212.195 22.64C212.195 23.92 212.235 25.1867 212.315 26.44C212.395 27.6933 212.569 28.9333 212.835 30.16C213.102 31.36 213.462 32.5333 213.915 33.68C214.395 34.8267 215.035 35.9333 215.835 37H206.395ZM224.275 9.32001C223.769 9.32001 223.155 9.48001 222.435 9.80001C221.742 10.0933 221.009 10.4933 220.235 11C219.489 11.48 218.729 12.0533 217.955 12.72C217.209 13.3867 216.542 14.08 215.955 14.8C215.369 15.4933 214.889 16.2 214.515 16.92C214.142 17.64 213.955 18.32 213.955 18.96C213.955 19.4933 214.089 19.92 214.355 20.24C214.622 20.56 215.009 20.72 215.515 20.72C216.022 20.72 216.622 20.5733 217.315 20.28C218.009 19.96 218.742 19.5467 219.515 19.04C220.289 18.5333 221.049 17.9467 221.795 17.28C222.542 16.6133 223.209 15.9333 223.795 15.24C224.382 14.52 224.862 13.8 225.235 13.08C225.609 12.3333 225.795 11.6533 225.795 11.04C225.795 9.89334 225.289 9.32001 224.275 9.32001Z" fill="black"/>
<path d="M231.644 37C232.497 34.2 233.164 31.28 233.644 28.24C234.124 25.1733 234.364 21.9467 234.364 18.56C234.364 15.52 234.15 12.56 233.724 9.68001C233.324 6.77334 232.684 4.02667 231.804 1.44H253.164V13.12C252.364 12.6933 251.51 12.2533 250.604 11.8C249.724 11.32 248.817 10.88 247.884 10.48C246.95 10.08 246.004 9.76001 245.044 9.52001C244.11 9.25334 243.19 9.12001 242.284 9.12001C241.484 9.12001 240.804 9.48001 240.244 10.2C239.684 10.92 239.217 11.7867 238.844 12.8C238.497 13.8133 238.244 14.8667 238.084 15.96C237.924 17.0533 237.844 17.9867 237.844 18.76C237.844 19.4533 237.937 19.96 238.124 20.28C238.31 20.5733 238.564 20.72 238.884 20.72C239.23 20.72 239.67 20.6 240.204 20.36C240.737 20.0933 241.337 19.7867 242.004 19.44C242.884 18.9867 243.83 18.5333 244.844 18.08C245.857 17.6267 246.87 17.4 247.884 17.4C248.044 17.4 248.19 17.4 248.324 17.4C248.484 17.4 248.644 17.4267 248.804 17.48V23.56C246.804 22.8133 244.99 22.3067 243.364 22.04C241.764 21.7467 240.27 21.6 238.884 21.6C238.564 22.0267 238.244 22.4933 237.924 23C237.604 23.5067 237.324 24.0133 237.084 24.52C236.844 25.0267 236.644 25.52 236.484 26C236.324 26.48 236.244 26.9067 236.244 27.28C236.244 27.7867 236.39 28.1867 236.684 28.48C237.004 28.7733 237.377 29 237.804 29.16C238.23 29.2933 238.67 29.3867 239.124 29.44C239.577 29.4667 239.95 29.48 240.244 29.48C241.044 29.48 241.964 29.4 243.004 29.24C244.07 29.08 245.177 28.8533 246.324 28.56C247.497 28.2667 248.67 27.9067 249.844 27.48C251.017 27.0533 252.124 26.5733 253.164 26.04V37H231.644Z" fill="black"/>
</svg>
