<svg width="40" height="40" viewBox="0 0 40 40" fill="none" xmlns="http://www.w3.org/2000/svg">
<g clip-path="url(#clip0_41_85)">
<path d="M18.1673 8.13091C17.8182 8.13091 17.5564 7.78182 17.5564 7.47636C17.5564 7.34546 17.5564 7.30182 17.6 7.25818L19.8691 1.23636C19.9564 0.930908 20.1309 0.843637 20.4364 0.843637C20.6982 0.843637 20.9164 0.930908 21.0036 1.23636L23.2291 7.25818L23.2727 7.47636C23.2727 7.78182 23.0109 8.13091 22.6618 8.13091H18.1673ZM9.78909 13.4545C9.48364 13.4545 9.30909 13.3236 9.17818 13.0618L6.51636 7.25818C6.47273 7.17091 6.42909 7.08364 6.42909 6.99636C6.42909 6.56 6.77818 6.34182 7.08364 6.34182C7.21454 6.34182 7.25818 6.38545 7.34545 6.38545L13.1491 9.09091C13.3673 9.17818 13.5418 9.39636 13.5418 9.65818C13.5418 9.87636 13.4982 10.0073 13.3673 10.0945L10.1818 13.2364C10.0945 13.3673 9.96364 13.4545 9.78909 13.4545ZM31.2145 13.4545C30.9527 13.4545 30.7782 13.3673 30.6036 13.2364L27.5055 10.0945C27.3745 10.0073 27.2873 9.87636 27.2873 9.65818C27.2873 9.44 27.4182 9.22182 27.68 9.09091L33.5273 6.38545C33.5709 6.38545 33.6582 6.34182 33.7455 6.34182C34.0945 6.34182 34.4 6.60364 34.4 6.99636C34.4 7.04 34.4 7.08364 34.3564 7.12727L34.3127 7.25818L31.6509 13.0618C31.52 13.28 31.3891 13.4109 31.2145 13.4545ZM20.4364 30.6473C14.72 30.6473 10.0945 26.0218 10.0945 20.3055C10.0945 14.5891 14.72 10.0073 20.4364 10.0073C26.0655 10.0073 30.7782 14.5891 30.7782 20.3055C30.7782 26.0655 26.0655 30.6473 20.4364 30.6473ZM20.4364 28.0727C24.6691 28.0727 28.2036 24.6255 28.2036 20.3055C28.2036 16.0291 24.6691 12.5818 20.4364 12.5818C16.16 12.5818 12.6691 16.0291 12.6691 20.3055C12.6691 24.5818 16.16 28.0727 20.4364 28.0727ZM7.56364 23.1855L7.34545 23.1418L1.32364 20.9164C1.06182 20.8291 0.930908 20.5673 0.930908 20.3055C0.930908 20.0436 1.06182 19.8255 1.32364 19.7382L7.47636 17.4691H7.56364C7.95636 17.4691 8.17454 17.7745 8.17454 18.1236V22.5309C8.17454 22.88 7.95636 23.1855 7.56364 23.1855ZM33.2655 23.1855C32.9164 23.1855 32.6545 22.9236 32.6545 22.5309V18.1236C32.6545 17.7745 32.8727 17.4691 33.2218 17.4691C33.3091 17.4691 33.3964 17.4691 33.4836 17.5127L39.5055 19.7382C39.8109 19.8691 39.9418 20.0436 39.9418 20.3055C39.9418 20.6109 39.8109 20.7855 39.5055 20.9164L33.4836 23.1418L33.2655 23.1855ZM7.08364 34.3127C6.69091 34.3127 6.42909 34.0509 6.42909 33.6582L6.47273 33.5273C6.47273 33.4836 6.47273 33.44 6.51636 33.3964L9.17818 27.5491C9.30909 27.3309 9.48364 27.2 9.74545 27.2C9.96364 27.2 10.0945 27.2873 10.1818 27.3745L13.3673 30.56C13.4982 30.6473 13.5418 30.8218 13.5418 30.9964C13.5418 31.2145 13.3673 31.4764 13.1491 31.5636L7.34545 34.2255C7.25818 34.2691 7.17091 34.3127 7.08364 34.3127ZM33.7455 34.3127C33.6582 34.3127 33.6145 34.2691 33.5273 34.2255L27.68 31.5636C27.4182 31.4327 27.2873 31.2582 27.2873 30.9964C27.2873 30.8218 27.3745 30.6473 27.5055 30.56L30.6036 27.3745C30.7345 27.2873 30.9091 27.2 31.0836 27.2C31.3018 27.2 31.52 27.3309 31.6509 27.5491L34.3127 33.3964L34.3564 33.5273C34.3564 33.6145 34.3564 33.6145 34.4 33.6582C34.4 34.0073 34.1382 34.3127 33.7455 34.3127ZM20.4364 39.8109C20.1745 39.8109 19.9564 39.68 19.8691 39.4182L17.6 33.3964C17.6 33.3527 17.6 33.3091 17.5564 33.1782C17.5564 32.8291 17.7745 32.5236 18.1673 32.5236H22.6618C22.9673 32.5236 23.2727 32.8291 23.2727 33.1782C23.2727 33.2655 23.2727 33.3527 23.2291 33.3964L21.0036 39.4182C20.9164 39.68 20.6982 39.8109 20.4364 39.8109Z" fill="black"/>
</g>
<defs>
<clipPath id="clip0_41_85">
<rect width="40" height="40" fill="white"/>
</clipPath>
</defs>
</svg>
