<svg width="40" height="40" viewBox="0 0 40 40" fill="none" xmlns="http://www.w3.org/2000/svg">
<path d="M29.3375 24.02C28.9356 23.8202 26.3233 22.6217 25.9215 22.422C25.5196 22.2222 25.1177 22.2222 24.7158 22.6217C24.3139 23.0212 23.5102 24.2197 23.1083 24.6192C22.9073 25.0187 22.5055 25.0187 22.1036 24.819C20.697 24.2197 19.2904 23.4207 18.0847 22.422C17.08 21.4232 16.0753 20.2247 15.2716 19.0262C15.0706 18.6267 15.2716 18.2272 15.4725 18.0275C15.6734 17.8277 15.8744 17.4282 16.2763 17.2285C16.4772 17.0287 16.6781 16.6292 16.6781 16.4295C16.8791 16.2297 16.8791 15.8302 16.6781 15.6305C16.4772 15.4307 15.4725 13.0337 15.0706 12.035C14.8697 10.6367 14.4678 10.6367 14.0659 10.6367H13.0612C12.6593 10.6367 12.0565 11.0362 11.8556 11.236C10.6499 12.4345 10.0471 13.8327 10.0471 15.4307C10.248 17.2285 10.8508 19.0262 12.0565 20.6242C14.2669 23.8202 17.08 26.417 20.496 28.015C21.5007 28.4145 22.3045 28.814 23.3092 29.0137C24.3139 29.4132 25.3186 29.4132 26.5243 29.2135C27.9309 29.0137 29.1365 28.015 29.9403 26.8165C30.3422 26.0175 30.3422 25.2185 30.1412 24.4195L29.3375 24.02ZM34.361 5.8427C26.5243 -1.94757 13.865 -1.94757 6.02825 5.8427C-0.401883 12.2347 -1.60753 22.0225 2.81318 29.8127L0 40L10.6499 37.2035C13.664 38.8015 16.8791 39.6005 20.0942 39.6005C31.1459 39.6005 39.9874 30.8115 39.9874 19.8252C40.1883 14.6317 37.978 9.63795 34.361 5.8427ZM28.9356 33.8077C26.3233 35.4057 23.3092 36.4045 20.0942 36.4045C17.08 36.4045 14.2669 35.6055 11.6546 34.2072L11.0518 33.8077L4.8226 35.4057L6.43013 29.4132L6.02825 28.814C1.20565 20.824 3.61695 10.8365 11.4537 5.8427C19.2904 0.848939 29.3375 3.44569 34.1601 11.0362C38.9827 18.8265 36.7723 29.0137 28.9356 33.8077Z" fill="black"/>
</svg>
